<mxfile host="app.diagrams.net" modified="2021-05-11T16:18:26.723Z" agent="5.0 (Windows NT 10.0; Win64; x64) AppleWebKit/537.36 (KHTML, like Gecko) Chrome/90.0.4430.93 Safari/537.36" etag="Y_od7tG_S307c2qUA4qV" version="14.6.11" type="github" pages="4">
  <diagram id="c3rzqSjMyz1cT-s9Slfi" name="REGISTER">
    <mxGraphModel dx="512" dy="332" grid="1" gridSize="10" guides="1" tooltips="1" connect="1" arrows="1" fold="1" page="1" pageScale="1" pageWidth="827" pageHeight="1169" math="0" shadow="0">
      <root>
        <mxCell id="ql8g9sliwzq7bfOpSxAg-0" />
        <mxCell id="ql8g9sliwzq7bfOpSxAg-1" parent="ql8g9sliwzq7bfOpSxAg-0" />
        <mxCell id="ql8g9sliwzq7bfOpSxAg-2" value="" style="verticalLabelPosition=bottom;verticalAlign=top;html=1;shadow=0;dashed=0;strokeWidth=1;shape=mxgraph.android.phone2;strokeColor=#b85450;fillColor=#f8cecc;" vertex="1" parent="ql8g9sliwzq7bfOpSxAg-1">
          <mxGeometry x="70" y="40" width="200" height="390" as="geometry" />
        </mxCell>
        <mxCell id="ql8g9sliwzq7bfOpSxAg-3" value="" style="verticalLabelPosition=bottom;verticalAlign=top;html=1;shadow=0;dashed=0;strokeWidth=1;shape=mxgraph.android.contact_badge_normal;" vertex="1" parent="ql8g9sliwzq7bfOpSxAg-1">
          <mxGeometry x="135" y="130" width="70" height="60" as="geometry" />
        </mxCell>
        <mxCell id="ql8g9sliwzq7bfOpSxAg-4" value="registrati" style="rounded=1;html=1;shadow=0;dashed=0;whiteSpace=wrap;fontSize=10;fillColor=#E6E6E6;align=center;strokeColor=#E6E6E6;fontColor=#333333;" vertex="1" parent="ql8g9sliwzq7bfOpSxAg-1">
          <mxGeometry x="142.25" y="340" width="55.5" height="16.88" as="geometry" />
        </mxCell>
        <mxCell id="ql8g9sliwzq7bfOpSxAg-5" value="&lt;font style=&quot;font-size: 22px&quot;&gt;&lt;i&gt;Juliet&#39;s port&lt;/i&gt;&lt;/font&gt;" style="text;html=1;fontSize=24;fontStyle=1;verticalAlign=middle;align=center;" vertex="1" parent="ql8g9sliwzq7bfOpSxAg-1">
          <mxGeometry x="102" y="80" width="136" height="40" as="geometry" />
        </mxCell>
        <mxCell id="ql8g9sliwzq7bfOpSxAg-6" value="" style="strokeWidth=1;html=1;shadow=0;dashed=0;shape=mxgraph.android.rrect;rSize=0;strokeColor=#eeeeee;fillColor=#ffffff;gradientColor=none;" vertex="1" parent="ql8g9sliwzq7bfOpSxAg-1">
          <mxGeometry x="90" y="220" width="160" height="90" as="geometry" />
        </mxCell>
        <mxCell id="ql8g9sliwzq7bfOpSxAg-7" value="NOME:" style="strokeColor=inherit;fillColor=inherit;gradientColor=inherit;strokeWidth=1;html=1;shadow=0;dashed=0;shape=mxgraph.android.rrect;rSize=0;align=left;spacingLeft=10;fontSize=8;fontColor=#333333;" vertex="1" parent="ql8g9sliwzq7bfOpSxAg-6">
          <mxGeometry width="160" height="22.5" as="geometry" />
        </mxCell>
        <mxCell id="ql8g9sliwzq7bfOpSxAg-8" value="COGNOME:" style="strokeColor=inherit;fillColor=inherit;gradientColor=inherit;strokeWidth=1;html=1;shadow=0;dashed=0;shape=mxgraph.android.rrect;rSize=0;align=left;spacingLeft=10;fontSize=8;fontColor=#333333;" vertex="1" parent="ql8g9sliwzq7bfOpSxAg-6">
          <mxGeometry y="22.5" width="160" height="22.5" as="geometry" />
        </mxCell>
        <mxCell id="ql8g9sliwzq7bfOpSxAg-9" value="EMAIL:" style="strokeColor=inherit;fillColor=inherit;gradientColor=inherit;strokeWidth=1;html=1;shadow=0;dashed=0;shape=mxgraph.android.rrect;rSize=0;align=left;spacingLeft=10;fontSize=8;fontColor=#333333;" vertex="1" parent="ql8g9sliwzq7bfOpSxAg-6">
          <mxGeometry y="45" width="160" height="22.5" as="geometry" />
        </mxCell>
        <mxCell id="p5JReWSLZa9jr2SMIVMD-0" value="INDIRIZZO:" style="strokeColor=inherit;fillColor=inherit;gradientColor=inherit;strokeWidth=1;html=1;shadow=0;dashed=0;shape=mxgraph.android.rrect;rSize=0;align=left;spacingLeft=10;fontSize=8;fontColor=#333333;" vertex="1" parent="ql8g9sliwzq7bfOpSxAg-6">
          <mxGeometry y="67.5" width="160" height="22.5" as="geometry" />
        </mxCell>
      </root>
    </mxGraphModel>
  </diagram>
  <diagram id="C1SPTXsSujYJug1Wox_S" name="PASSWORD">
    <mxGraphModel dx="743" dy="482" grid="1" gridSize="10" guides="1" tooltips="1" connect="1" arrows="1" fold="1" page="1" pageScale="1" pageWidth="827" pageHeight="1169" math="0" shadow="0">
      <root>
        <mxCell id="bl2idtHfV2_T7LsNtcRM-0" />
        <mxCell id="bl2idtHfV2_T7LsNtcRM-1" parent="bl2idtHfV2_T7LsNtcRM-0" />
        <mxCell id="bl2idtHfV2_T7LsNtcRM-2" value="" style="verticalLabelPosition=bottom;verticalAlign=top;html=1;shadow=0;dashed=0;strokeWidth=1;shape=mxgraph.android.phone2;strokeColor=#b85450;fillColor=#f8cecc;" vertex="1" parent="bl2idtHfV2_T7LsNtcRM-1">
          <mxGeometry x="70" y="40" width="200" height="390" as="geometry" />
        </mxCell>
        <mxCell id="bl2idtHfV2_T7LsNtcRM-3" value="" style="verticalLabelPosition=bottom;verticalAlign=top;html=1;shadow=0;dashed=0;strokeWidth=1;shape=mxgraph.android.contact_badge_normal;" vertex="1" parent="bl2idtHfV2_T7LsNtcRM-1">
          <mxGeometry x="135" y="130" width="70" height="60" as="geometry" />
        </mxCell>
        <mxCell id="bl2idtHfV2_T7LsNtcRM-4" value="registrati" style="rounded=1;html=1;shadow=0;dashed=0;whiteSpace=wrap;fontSize=10;fillColor=#E6E6E6;align=center;strokeColor=#E6E6E6;fontColor=#333333;" vertex="1" parent="bl2idtHfV2_T7LsNtcRM-1">
          <mxGeometry x="142.25" y="340" width="55.5" height="16.88" as="geometry" />
        </mxCell>
        <mxCell id="bl2idtHfV2_T7LsNtcRM-5" value="&lt;font style=&quot;font-size: 22px&quot;&gt;&lt;i&gt;Juliet&#39;s port&lt;/i&gt;&lt;/font&gt;" style="text;html=1;fontSize=24;fontStyle=1;verticalAlign=middle;align=center;" vertex="1" parent="bl2idtHfV2_T7LsNtcRM-1">
          <mxGeometry x="102" y="80" width="136" height="40" as="geometry" />
        </mxCell>
        <mxCell id="bl2idtHfV2_T7LsNtcRM-6" value="" style="strokeWidth=1;html=1;shadow=0;dashed=0;shape=mxgraph.android.rrect;rSize=0;strokeColor=#eeeeee;fillColor=#ffffff;gradientColor=none;" vertex="1" parent="bl2idtHfV2_T7LsNtcRM-1">
          <mxGeometry x="90" y="220" width="160" height="90" as="geometry" />
        </mxCell>
        <mxCell id="bl2idtHfV2_T7LsNtcRM-7" value="PASSWORD:" style="strokeColor=inherit;fillColor=inherit;gradientColor=inherit;strokeWidth=1;html=1;shadow=0;dashed=0;shape=mxgraph.android.rrect;rSize=0;align=left;spacingLeft=10;fontSize=8;fontColor=#333333;" vertex="1" parent="bl2idtHfV2_T7LsNtcRM-6">
          <mxGeometry width="160" height="22.5" as="geometry" />
        </mxCell>
        <mxCell id="bl2idtHfV2_T7LsNtcRM-8" value="CONFERMA PASSWORD:" style="strokeColor=inherit;fillColor=inherit;gradientColor=inherit;strokeWidth=1;html=1;shadow=0;dashed=0;shape=mxgraph.android.rrect;rSize=0;align=left;spacingLeft=10;fontSize=8;fontColor=#333333;" vertex="1" parent="bl2idtHfV2_T7LsNtcRM-6">
          <mxGeometry y="22.5" width="160" height="22.5" as="geometry" />
        </mxCell>
        <mxCell id="bl2idtHfV2_T7LsNtcRM-9" value="" style="strokeColor=inherit;fillColor=inherit;gradientColor=inherit;strokeWidth=1;html=1;shadow=0;dashed=0;shape=mxgraph.android.rrect;rSize=0;align=left;spacingLeft=10;fontSize=8;fontColor=#333333;" vertex="1" parent="bl2idtHfV2_T7LsNtcRM-6">
          <mxGeometry y="45" width="160" height="22.5" as="geometry" />
        </mxCell>
        <mxCell id="bl2idtHfV2_T7LsNtcRM-10" value="" style="strokeColor=inherit;fillColor=inherit;gradientColor=inherit;strokeWidth=1;html=1;shadow=0;dashed=0;shape=mxgraph.android.rrect;rSize=0;align=left;spacingLeft=10;fontSize=8;fontColor=#333333;" vertex="1" parent="bl2idtHfV2_T7LsNtcRM-6">
          <mxGeometry y="67.5" width="160" height="22.5" as="geometry" />
        </mxCell>
      </root>
    </mxGraphModel>
  </diagram>
  <diagram id="OOS6tQaFtWBXDitQToDT" name="LOGIN">
    <mxGraphModel dx="512" dy="332" grid="1" gridSize="10" guides="1" tooltips="1" connect="1" arrows="1" fold="1" page="1" pageScale="1" pageWidth="827" pageHeight="1169" math="0" shadow="0">
      <root>
        <mxCell id="0" />
        <mxCell id="1" parent="0" />
        <mxCell id="6YACq_rRAbOHLaW3__G0-1" value="" style="verticalLabelPosition=bottom;verticalAlign=top;html=1;shadow=0;dashed=0;strokeWidth=1;shape=mxgraph.android.phone2;strokeColor=#b85450;fillColor=#f8cecc;" vertex="1" parent="1">
          <mxGeometry x="70" y="40" width="210" height="390" as="geometry" />
        </mxCell>
        <mxCell id="6YACq_rRAbOHLaW3__G0-4" value="login" style="rounded=1;html=1;shadow=0;dashed=0;whiteSpace=wrap;fontSize=10;fillColor=#E6E6E6;align=center;strokeColor=#E6E6E6;fontColor=#333333;" vertex="1" parent="1">
          <mxGeometry x="144.5" y="330" width="55.5" height="16.88" as="geometry" />
        </mxCell>
        <mxCell id="6YACq_rRAbOHLaW3__G0-5" value="&lt;font style=&quot;font-size: 22px&quot;&gt;&lt;span style=&quot;font-size: 8px&quot;&gt;&lt;i&gt;Benvenuto nella piattaforma Juliet&#39;s port&lt;/i&gt;&lt;/span&gt;&lt;/font&gt;" style="text;html=1;fontSize=24;fontStyle=1;verticalAlign=middle;align=center;" vertex="1" parent="1">
          <mxGeometry x="102" y="80" width="136" height="50" as="geometry" />
        </mxCell>
        <mxCell id="6YACq_rRAbOHLaW3__G0-7" value="" style="strokeWidth=1;html=1;shadow=0;dashed=0;shape=mxgraph.android.rrect;rSize=0;strokeColor=#eeeeee;fillColor=#ffffff;gradientColor=none;" vertex="1" parent="1">
          <mxGeometry x="90" y="220" width="160" height="90" as="geometry" />
        </mxCell>
        <mxCell id="6YACq_rRAbOHLaW3__G0-8" value="USERNAME:" style="strokeColor=inherit;fillColor=inherit;gradientColor=inherit;strokeWidth=1;html=1;shadow=0;dashed=0;shape=mxgraph.android.rrect;rSize=0;align=left;spacingLeft=10;fontSize=8;fontColor=#333333;" vertex="1" parent="6YACq_rRAbOHLaW3__G0-7">
          <mxGeometry width="160" height="22.5" as="geometry" />
        </mxCell>
        <mxCell id="6YACq_rRAbOHLaW3__G0-9" value="PASSWORD:" style="strokeColor=inherit;fillColor=inherit;gradientColor=inherit;strokeWidth=1;html=1;shadow=0;dashed=0;shape=mxgraph.android.rrect;rSize=0;align=left;spacingLeft=10;fontSize=8;fontColor=#333333;" vertex="1" parent="6YACq_rRAbOHLaW3__G0-7">
          <mxGeometry y="22.5" width="160" height="22.5" as="geometry" />
        </mxCell>
        <mxCell id="6YACq_rRAbOHLaW3__G0-10" value="" style="strokeColor=inherit;fillColor=inherit;gradientColor=inherit;strokeWidth=1;html=1;shadow=0;dashed=0;shape=mxgraph.android.rrect;rSize=0;align=left;spacingLeft=10;fontSize=8;fontColor=#333333;" vertex="1" parent="6YACq_rRAbOHLaW3__G0-7">
          <mxGeometry y="45" width="160" height="22.5" as="geometry" />
        </mxCell>
        <mxCell id="fLkOou6GQ3fLpsZabJCq-1" value="&lt;font size=&quot;1&quot;&gt;&lt;i style=&quot;font-weight: normal ; font-size: 15px&quot;&gt;LOGIN&lt;/i&gt;&lt;/font&gt;" style="text;strokeColor=none;fillColor=none;html=1;fontSize=24;fontStyle=1;verticalAlign=middle;align=center;" vertex="1" parent="1">
          <mxGeometry x="120" y="150" width="100" height="30" as="geometry" />
        </mxCell>
      </root>
    </mxGraphModel>
  </diagram>
  <diagram id="PXbJbUY5X_DSVw4pFLNN" name="CONFIG">
    <mxGraphModel dx="512" dy="332" grid="1" gridSize="10" guides="1" tooltips="1" connect="1" arrows="1" fold="1" page="1" pageScale="1" pageWidth="827" pageHeight="1169" math="0" shadow="0">
      <root>
        <mxCell id="PHI35jgFlUeK0dFBy4k3-0" />
        <mxCell id="PHI35jgFlUeK0dFBy4k3-1" parent="PHI35jgFlUeK0dFBy4k3-0" />
        <mxCell id="BobKT9kUtmCQ-etTndCS-0" value="" style="verticalLabelPosition=bottom;verticalAlign=top;html=1;shadow=0;dashed=0;strokeWidth=1;shape=mxgraph.android.phone2;strokeColor=#b85450;fillColor=#f8cecc;" vertex="1" parent="PHI35jgFlUeK0dFBy4k3-1">
          <mxGeometry x="70" y="40" width="200" height="390" as="geometry" />
        </mxCell>
        <mxCell id="BobKT9kUtmCQ-etTndCS-1" value="" style="verticalLabelPosition=bottom;verticalAlign=top;html=1;shadow=0;dashed=0;strokeWidth=1;shape=mxgraph.android.contact_badge_normal;" vertex="1" parent="PHI35jgFlUeK0dFBy4k3-1">
          <mxGeometry x="135" y="130" width="70" height="60" as="geometry" />
        </mxCell>
        <mxCell id="BobKT9kUtmCQ-etTndCS-2" value="login" style="rounded=1;html=1;shadow=0;dashed=0;whiteSpace=wrap;fontSize=10;fillColor=#E6E6E6;align=center;strokeColor=#E6E6E6;fontColor=#333333;" vertex="1" parent="PHI35jgFlUeK0dFBy4k3-1">
          <mxGeometry x="144.5" y="330" width="55.5" height="16.88" as="geometry" />
        </mxCell>
        <mxCell id="BobKT9kUtmCQ-etTndCS-3" value="&lt;font style=&quot;font-size: 22px&quot;&gt;&lt;i&gt;Juliet&#39;s port&lt;/i&gt;&lt;/font&gt;" style="text;html=1;fontSize=24;fontStyle=1;verticalAlign=middle;align=center;" vertex="1" parent="PHI35jgFlUeK0dFBy4k3-1">
          <mxGeometry x="102" y="80" width="136" height="40" as="geometry" />
        </mxCell>
        <mxCell id="BobKT9kUtmCQ-etTndCS-4" value="" style="strokeWidth=1;html=1;shadow=0;dashed=0;shape=mxgraph.android.rrect;rSize=0;strokeColor=#eeeeee;fillColor=#ffffff;gradientColor=none;" vertex="1" parent="PHI35jgFlUeK0dFBy4k3-1">
          <mxGeometry x="90" y="220" width="160" height="90" as="geometry" />
        </mxCell>
        <mxCell id="BobKT9kUtmCQ-etTndCS-5" value="USERNAME:" style="strokeColor=inherit;fillColor=inherit;gradientColor=inherit;strokeWidth=1;html=1;shadow=0;dashed=0;shape=mxgraph.android.rrect;rSize=0;align=left;spacingLeft=10;fontSize=8;fontColor=#333333;" vertex="1" parent="BobKT9kUtmCQ-etTndCS-4">
          <mxGeometry width="160" height="22.5" as="geometry" />
        </mxCell>
        <mxCell id="BobKT9kUtmCQ-etTndCS-6" value="PASSWORD:" style="strokeColor=inherit;fillColor=inherit;gradientColor=inherit;strokeWidth=1;html=1;shadow=0;dashed=0;shape=mxgraph.android.rrect;rSize=0;align=left;spacingLeft=10;fontSize=8;fontColor=#333333;" vertex="1" parent="BobKT9kUtmCQ-etTndCS-4">
          <mxGeometry y="22.5" width="160" height="22.5" as="geometry" />
        </mxCell>
        <mxCell id="BobKT9kUtmCQ-etTndCS-7" value="" style="strokeColor=inherit;fillColor=inherit;gradientColor=inherit;strokeWidth=1;html=1;shadow=0;dashed=0;shape=mxgraph.android.rrect;rSize=0;align=left;spacingLeft=10;fontSize=8;fontColor=#333333;" vertex="1" parent="BobKT9kUtmCQ-etTndCS-4">
          <mxGeometry y="45" width="160" height="22.5" as="geometry" />
        </mxCell>
      </root>
    </mxGraphModel>
  </diagram>
</mxfile>
